<svg id="Layer_1" data-name="Layer 1" xmlns="http://www.w3.org/2000/svg" viewBox="0 0 669.2 370.2"><title>MRK-7172 LC- 1 image for &amp;quot;How Website Speed Boosts SEO&amp;quot; article</title><line x1="84.9" y1="5.8" x2="84.9" y2="316.8" style="fill:none;stroke:#aaa;stroke-miterlimit:10;stroke-width:0.5px"/><line x1="142.9" y1="6.3" x2="142.9" y2="317.3" style="fill:none;stroke:#aaa;stroke-miterlimit:10;stroke-width:0.5px"/><line x1="202.9" y1="6.3" x2="202.9" y2="317.3" style="fill:none;stroke:#aaa;stroke-miterlimit:10;stroke-width:0.5px"/><line x1="262.9" y1="6.3" x2="262.9" y2="317.3" style="fill:none;stroke:#aaa;stroke-miterlimit:10;stroke-width:0.5px"/><line x1="319.9" y1="6.3" x2="319.9" y2="317.3" style="fill:none;stroke:#aaa;stroke-miterlimit:10;stroke-width:0.5px"/><line x1="386.9" y1="6.3" x2="386.9" y2="317.3" style="fill:none;stroke:#aaa;stroke-miterlimit:10;stroke-width:0.5px"/><line x1="487.9" y1="6.3" x2="487.9" y2="317.3" style="fill:none;stroke:#aaa;stroke-miterlimit:10;stroke-width:0.5px"/><line x1="607.9" y1="6.3" x2="607.9" y2="317.3" style="fill:none;stroke:#aaa;stroke-miterlimit:10;stroke-width:0.5px"/><line x1="54.4" y1="279.8" x2="668.9" y2="279.8" style="fill:none;stroke:#aaa;stroke-miterlimit:10;stroke-width:0.5px"/><line x1="54.4" y1="240.8" x2="668.9" y2="240.8" style="fill:none;stroke:#aaa;stroke-miterlimit:10;stroke-width:0.5px"/><line x1="54.4" y1="194.8" x2="668.9" y2="194.8" style="fill:none;stroke:#aaa;stroke-miterlimit:10;stroke-width:0.5px"/><line x1="54.4" y1="154.8" x2="668.9" y2="154.8" style="fill:none;stroke:#aaa;stroke-miterlimit:10;stroke-width:0.5px"/><line x1="54.4" y1="113.8" x2="668.9" y2="113.8" style="fill:none;stroke:#aaa;stroke-miterlimit:10;stroke-width:0.5px"/><line x1="54.4" y1="70.8" x2="668.9" y2="70.8" style="fill:none;stroke:#aaa;stroke-miterlimit:10;stroke-width:0.5px"/><line x1="54.4" y1="26.8" x2="668.9" y2="26.8" style="fill:none;stroke:#aaa;stroke-miterlimit:10;stroke-width:0.5px"/><text transform="translate(36.8 317.2)" style="font-size:16px;fill:#707070;font-family:SFCompactText-Regular, SF Compact Text">0</text><text transform="translate(80.8 338.2)" style="font-size:16px;fill:#707070;font-family:SFCompactText-Regular, SF Compact Text">1</text><text transform="translate(138.1 338.2)" style="font-size:16px;fill:#707070;font-family:SFCompactText-Regular, SF Compact Text">2</text><text transform="translate(197.1 338.2)" style="font-size:16px;fill:#707070;font-family:SFCompactText-Regular, SF Compact Text">3</text><text transform="translate(256.2 338.2)" style="font-size:16px;fill:#707070;font-family:SFCompactText-Regular, SF Compact Text">4</text><text transform="translate(315.6 338.2)" style="font-size:16px;fill:#707070;font-family:SFCompactText-Regular, SF Compact Text">5</text><text transform="translate(375 338.2)" style="font-size:16px;fill:#707070;font-family:SFCompactText-Regular, SF Compact Text">6<tspan x="9.6" y="0" style="letter-spacing:-0.01513671875em">-</tspan><tspan x="15.9" y="0">10</tspan></text><text transform="translate(457.9 338.2)" style="font-size:16px;fill:#707070;font-family:SFCompactText-Regular, SF Compact Text">2nd pa<tspan x="49.7" y="0" style="letter-spacing:0.0087890625em">g</tspan><tspan x="59" y="0">e</tspan></text><text transform="translate(575.7 338.2)" style="font-size:16px;fill:#707070;font-family:SFCompactText-Regular, SF Compact Text">3<tspan x="9.1" y="0" style="letter-spacing:-0.00146484375em">r</tspan><tspan x="15.4" y="0">d pa</tspan><tspan x="46.6" y="0" style="letter-spacing:0.0087890625em">g</tspan><tspan x="56" y="0">e +</tspan></text><text transform="translate(37.2 285)" style="font-size:16px;fill:#707070;font-family:SFCompactText-Regular, SF Compact Text">5</text><text transform="translate(29.5 242.8)" style="font-size:16px;fill:#707070;font-family:SFCompactText-Regular, SF Compact Text">10</text><text transform="translate(29.9 200.6)" style="font-size:16px;fill:#707070;font-family:SFCompactText-Regular, SF Compact Text">15</text><text transform="translate(27.8 158.4)" style="font-size:16px;fill:#707070;font-family:SFCompactText-Regular, SF Compact Text">20</text><text transform="translate(28.2 116.2)" style="font-size:16px;fill:#707070;font-family:SFCompactText-Regular, SF Compact Text">25</text><text transform="translate(27.6 74)" style="font-size:16px;fill:#707070;font-family:SFCompactText-Regular, SF Compact Text">30</text><text transform="translate(28 31.8)" style="font-size:16px;fill:#707070;font-family:SFCompactText-Regular, SF Compact Text">35</text><polyline points="54.2 0 54.2 317 669.2 317" style="fill:none;stroke:#707070;stroke-miterlimit:10;stroke-width:0.9676908497828869px"/><polyline points="84.9 39.8 143.4 201.3 203.4 241.3 263.4 259.3 320.4 273.3 387.4 285.3 487.9 285 608.4 305.3" style="fill:none;stroke:#f69259;stroke-miterlimit:10;stroke-width:2px"/><path d="M7.2,234.7c2.2,0,3.5-1.1,3.5-2.8a2.3,2.3,0,0,0-1.9-2.5V228h0a3.6,3.6,0,0,1,3.2,3.9c0,2.7-1.8,4.2-4.8,4.2H5.7c-3,0-4.8-1.6-4.8-4.2s1.3-3.8,3.3-3.9h0v1.4a2.3,2.3,0,0,0-2.1,2.5c0,1.7,1.4,2.8,3.6,2.8Z" style="fill:#707070"/><path d="M.5,225.5v-1.4H11.7v1.4Z" style="fill:#707070"/><path d="M0,220.4a.9.9,0,0,1,1-1,1,1,0,0,1,0,2A.9.9,0,0,1,0,220.4Zm3.5.7v-1.4h8.2v1.4Z" style="fill:#707070"/><path d="M6.9,217.1a3.2,3.2,0,0,1-3.5-3.4c0-2.1,1.2-3.2,2.5-3.2v1.4a1.6,1.6,0,0,0-1.3,1.7c0,1.4,1,2.1,2.4,2.1H8.3a2.1,2.1,0,0,0,2.3-2.1c0-1.2-.5-1.6-1.2-1.8v-1.3c1.3,0,2.5,1,2.5,3.2a3.3,3.3,0,0,1-3.6,3.4Z" style="fill:#707070"/><path d="M11.7,206.8v1.4H.5v-1.4H7.2l-3.7-3.3v-1.6L7.1,205l4.6-3.4v1.7L8,206l.7.8Z" style="fill:#707070"/><path d="M1.5,195.7v-1.4h2v-1.8H4.7v1.8H9.4c1,0,1.2-.3,1.2-1.3v-.6h1.1a2.8,2.8,0,0,1,.1,1c0,1.9-.7,2.4-2.4,2.4H4.7V197H3.5v-1.3Z" style="fill:#707070"/><path d="M.5,190.2v-1.5H5a2.5,2.5,0,0,1-1.6-2.6,2.5,2.5,0,0,1,2.7-2.7h5.6v1.4H6.6c-1.3,0-2,.7-2,1.8s1.1,2.1,2.6,2.1h4.5v1.5Z" style="fill:#707070"/><path d="M3.5,180.5v-1.4H4.8a2.1,2.1,0,0,1-1.4-2.2v-.5H4.7v.6a1.9,1.9,0,0,0,2,2.2h5v1.4Z" style="fill:#707070"/><path d="M7,167.7H8.2a3.6,3.6,0,1,1,0,7.1H7a3.4,3.4,0,0,1-3.6-3.6A3.3,3.3,0,0,1,7,167.7Zm.1,5.7h1c1.5,0,2.6-.8,2.6-2.2s-1.1-2.1-2.6-2.1h-1c-1.5,0-2.5.8-2.5,2.1S5.6,173.4,7.1,173.4Z" style="fill:#707070"/><path d="M11.7,158.6V160H10.4a2.6,2.6,0,0,1,1.5,2.5,2.5,2.5,0,0,1-2.7,2.8H3.5V164H8.8a1.6,1.6,0,0,0,1.8-1.8,2,2,0,0,0-1.9-2.1H3.5v-1.5Z" style="fill:#707070"/><path d="M11.5,150.7H10.3a2.5,2.5,0,0,1,1.3,2.3,3.3,3.3,0,0,1-3.5,3.3H6.9a3.2,3.2,0,0,1-3.5-3.3,2.6,2.6,0,0,1,1.4-2.4H3.5v-1.4h8c2.3,0,3.2,1.5,3.2,3.6s-1,3.2-2.2,3.3v-1.5c.6-.1,1-.7,1-1.8S12.8,150.7,11.5,150.7Zm-4.4,4.2h.8a2.2,2.2,0,0,0,2.5-2.1,2.2,2.2,0,0,0-2.3-2.1H6.9a2.2,2.2,0,0,0-2.3,2.1C4.6,154.1,5.6,154.9,7.1,154.9Z" style="fill:#707070"/><path d="M.5,146.5V145H5a2.5,2.5,0,0,1-1.6-2.6,2.5,2.5,0,0,1,2.7-2.7h5.6v1.4H6.6c-1.3,0-2,.7-2,1.8S5.7,145,7.2,145h4.5v1.5Z" style="fill:#707070"/><path d="M3.5,133.2v-1.4H4.8a2.1,2.1,0,0,1-1.4-2.2v-.6H4.7v.7a2,2,0,0,0,2,2.2h5v1.4Z" style="fill:#707070"/><path d="M9.3,127.5c-1.4,0-2.4-1-2.4-2.9v-2.1H6.1c-1,0-1.5.6-1.5,1.7s.4,1.5,1,1.6v1.4c-1.4-.1-2.2-1.2-2.2-3.1s.7-3,2.7-3h5.6v1.3H10.6a2.7,2.7,0,0,1-1.3,5Zm-.4-5H8v2c0,1.1.6,1.6,1.3,1.6a1.5,1.5,0,0,0,1.4-1.7A1.8,1.8,0,0,0,8.9,122.5Z" style="fill:#707070"/><path d="M1.5,117.9v-1.4h2v-1.9H4.7v1.9H9.4c1,0,1.2-.4,1.2-1.4v-.6h1.1a2.8,2.8,0,0,1,.1,1c0,1.9-.7,2.4-2.4,2.4H4.7v1.2H3.5v-1.2Z" style="fill:#707070"/><path d="M8.2,112.7H7a3.4,3.4,0,1,1,0-6.8H8v5.4h.4a2.1,2.1,0,0,0,2.3-2.1,1.8,1.8,0,0,0-1-1.8V106c.9.1,2.2,1.1,2.2,3.2S10.5,112.7,8.2,112.7ZM7,107.3H6.8a2,2,0,1,0,0,4H7Z" style="fill:#707070"/><path d="M295.1,364.5c.2,1,1.1,1.6,2.5,1.6s2.4-.7,2.4-1.8-.5-1.4-1.7-1.7l-1.9-.4a2.9,2.9,0,0,1-2.5-2.9c0-1.8,1.6-3,3.7-3s3.6,1.1,3.7,2.8h-1.4a2.1,2.1,0,0,0-2.3-1.6c-1.3,0-2.2.7-2.2,1.8s.5,1.2,1.5,1.5l1.8.5c1.9.4,2.8,1.3,2.8,2.9s-1.6,3.2-4,3.2-3.7-1.2-3.9-2.9Z" style="fill:#707070"/><path d="M303.4,363.7v-1.3a3.4,3.4,0,1,1,6.8,0v1h-5.4v.4a2.1,2.1,0,0,0,2.1,2.3,1.8,1.8,0,0,0,1.8-1h1.4c-.1.9-1.1,2.2-3.2,2.2A3.3,3.3,0,0,1,303.4,363.7Zm5.4-1.3h0a2,2,0,1,0-4,0h4Z" style="fill:#707070"/><path d="M312.1,364.8c0-1.5,1-2.4,2.9-2.4h2.1v-.9c0-1-.6-1.5-1.7-1.5s-1.5.4-1.6,1h-1.4c.1-1.4,1.2-2.2,3-2.2s3.1.7,3.1,2.8v5.6h-1.3v-1.1h-.1a2.6,2.6,0,0,1-2.3,1.2A2.5,2.5,0,0,1,312.1,364.8Zm5-.4v-1h-2c-1.1,0-1.6.6-1.6,1.3s.8,1.4,1.7,1.4A1.7,1.7,0,0,0,317.1,364.4Z" style="fill:#707070"/><path d="M321.4,358.9h1.4v1.3h.1a2.2,2.2,0,0,1,2.2-1.4h.6v1.3H325a1.9,1.9,0,0,0-2.2,2v5.1h-1.4Z" style="fill:#707070"/><path d="M327.1,362.4a3.3,3.3,0,0,1,3.5-3.6c2,0,3.1,1.3,3.1,2.5h-1.4c-.1-.5-.4-1.2-1.7-1.2s-2.1.9-2.1,2.3v1.3a2.1,2.1,0,0,0,2.1,2.3c1.2,0,1.6-.5,1.8-1.1h1.4c-.1,1.2-1.1,2.4-3.2,2.4a3.3,3.3,0,0,1-3.5-3.6Z" style="fill:#707070"/><path d="M336,355.9h1.4v4.5h.1a2.8,2.8,0,0,1,5.3,1.2v5.6h-1.4V362a1.7,1.7,0,0,0-1.8-1.9,2.2,2.2,0,0,0-2.2,2.5v4.6H336Z" style="fill:#707070"/><path d="M349.3,358.9h1.4v1.3h.1a2.2,2.2,0,0,1,2.2-1.4h.5v1.3h-.6a1.9,1.9,0,0,0-2.2,2v5.1h-1.4Z" style="fill:#707070"/><path d="M355,364.8c0-1.5,1-2.4,2.8-2.4H360v-.9c0-1-.7-1.5-1.7-1.5s-1.5.4-1.7,1h-1.3c.1-1.4,1.2-2.2,3-2.2s3.1.7,3.1,2.8v5.6h-1.3v-1.1H360a2.7,2.7,0,0,1-2.4,1.2A2.4,2.4,0,0,1,355,364.8Zm5-.4v-1h-2c-1.1,0-1.6.6-1.6,1.3a1.4,1.4,0,0,0,1.6,1.4A1.8,1.8,0,0,0,360,364.4Z" style="fill:#707070"/><path d="M364.2,358.9h1.4v1.5h0a2.4,2.4,0,0,1,2.5-1.6,2.5,2.5,0,0,1,2.8,2.8v5.6h-1.4V362a1.7,1.7,0,0,0-1.8-1.9c-1.4,0-2.1,1.1-2.1,2.5v4.6h-1.4Z" style="fill:#707070"/><path d="M375.1,367.2h-1.4V355.9h1.4v6.7h0l3.4-3.7h1.6l-3.2,3.6,3.4,4.7h-1.7l-2.8-3.8-.7.7Z" style="fill:#707070"/><path d="M382.9,355.4a1,1,0,1,1-1,1A.9.9,0,0,1,382.9,355.4Zm-.7,3.5h1.4v8.3h-1.4Z" style="fill:#707070"/><path d="M386.6,358.9H388v1.5h.1a2.3,2.3,0,0,1,2.5-1.6,2.5,2.5,0,0,1,2.7,2.8v5.6h-1.4V362c0-1.3-.6-1.9-1.7-1.9s-2.2,1.1-2.2,2.5v4.6h-1.4Z" style="fill:#707070"/><path d="M401.2,366.9v-1.2h-.1a2.4,2.4,0,0,1-2.3,1.3,3.2,3.2,0,0,1-3.2-3.4v-1.3a3.2,3.2,0,0,1,3.2-3.5,2.5,2.5,0,0,1,2.4,1.4h.1v-1.3h1.3v8c0,2.3-1.5,3.3-3.6,3.3s-3.1-1.1-3.2-2.3h1.4c.1.6.8,1.1,1.9,1.1A1.9,1.9,0,0,0,401.2,366.9Zm-4.2-4.3v.7a2.2,2.2,0,0,0,2.2,2.5,2.1,2.1,0,0,0,2-2.2v-1.3a2.1,2.1,0,0,0-2-2.3C397.8,360,397,361.1,397,362.6Z" style="fill:#707070"/></svg>